<mxfile host="app.diagrams.net" modified="2024-02-12T05:10:25.423Z" agent="Mozilla/5.0 (Windows NT 10.0; Win64; x64) AppleWebKit/537.36 (KHTML, like Gecko) Chrome/121.0.0.0 Safari/537.36" etag="3G7uKjqLWeIEQJMevY13" version="23.1.2" type="gitlab">
  <diagram name="Page-1" id="HFw-rATWg2pGmlk59cch">
    <mxGraphModel dx="80" dy="1925" grid="1" gridSize="10" guides="1" tooltips="1" connect="1" arrows="1" fold="1" page="1" pageScale="1" pageWidth="850" pageHeight="1100" math="0" shadow="0">
      <root>
        <mxCell id="0" />
        <mxCell id="1" parent="0" />
        <mxCell id="1lKvg62nwzbLg4IVKvBi-1" value="&#xa;&lt;span style=&quot;color: rgb(255, 255, 255); font-family: Helvetica; font-size: 16px; font-style: normal; font-variant-ligatures: normal; font-variant-caps: normal; font-weight: 400; letter-spacing: normal; orphans: 2; text-align: left; text-indent: 0px; text-transform: none; widows: 2; word-spacing: 0px; -webkit-text-stroke-width: 0px; background-color: rgb(251, 251, 251); text-decoration-thickness: initial; text-decoration-style: initial; text-decoration-color: initial; float: none; display: inline !important;&quot;&gt;CarPrice&lt;/span&gt;&#xa;&#xa;" style="strokeWidth=1;shadow=0;dashed=0;align=center;html=1;shape=mxgraph.mockup.containers.browserWindow;rSize=0;strokeColor=#FFFFFF;mainText=,;recursiveResize=0;rounded=0;labelBackgroundColor=none;fontFamily=Verdana;fontSize=12;gradientColor=#e4e2e2;labelPadding=0;strokeOpacity=100;" vertex="1" parent="1">
          <mxGeometry x="2470" y="80" width="1110" height="990" as="geometry" />
        </mxCell>
        <mxCell id="1lKvg62nwzbLg4IVKvBi-2" value="Visualisation" style="strokeWidth=1;shadow=0;dashed=0;align=center;html=1;shape=mxgraph.mockup.containers.anchor;fontSize=17;fontColor=#666666;align=left;" vertex="1" parent="1lKvg62nwzbLg4IVKvBi-1">
          <mxGeometry x="60" y="10" width="180" height="28" as="geometry" />
        </mxCell>
        <mxCell id="1lKvg62nwzbLg4IVKvBi-3" value="https://visualisation" style="strokeWidth=1;shadow=0;dashed=0;align=center;html=1;shape=mxgraph.mockup.containers.anchor;rSize=0;fontSize=17;fontColor=#666666;align=left;" vertex="1" parent="1lKvg62nwzbLg4IVKvBi-1">
          <mxGeometry x="130" y="60" width="250" height="26" as="geometry" />
        </mxCell>
        <mxCell id="1lKvg62nwzbLg4IVKvBi-4" value="VG-15 Classification" style="html=1;shadow=0;dashed=0;fillColor=#546869;strokeColor=none;fontSize=16;fontColor=#ffffff;align=left;spacing=15;" vertex="1" parent="1lKvg62nwzbLg4IVKvBi-1">
          <mxGeometry y="110" width="1110" height="60" as="geometry" />
        </mxCell>
        <mxCell id="1lKvg62nwzbLg4IVKvBi-5" value="Login" style="fillColor=none;strokeColor=none;fontSize=14;fontColor=#ffffff;align=center;" vertex="1" parent="1lKvg62nwzbLg4IVKvBi-4">
          <mxGeometry width="70" height="50" relative="1" as="geometry">
            <mxPoint x="940" y="5" as="offset" />
          </mxGeometry>
        </mxCell>
        <mxCell id="1lKvg62nwzbLg4IVKvBi-6" value="Register" style="fillColor=none;strokeColor=none;fontSize=14;fontColor=#ffffff;align=center;" vertex="1" parent="1lKvg62nwzbLg4IVKvBi-4">
          <mxGeometry x="1020" y="5" width="70" height="50" as="geometry" />
        </mxCell>
        <mxCell id="1lKvg62nwzbLg4IVKvBi-7" value="Home" style="fillColor=none;strokeColor=none;fontSize=14;fontColor=#ffffff;align=center;" vertex="1" parent="1lKvg62nwzbLg4IVKvBi-4">
          <mxGeometry x="420" y="5" width="70" height="50" as="geometry" />
        </mxCell>
        <mxCell id="1lKvg62nwzbLg4IVKvBi-8" value="Predict" style="fillColor=none;strokeColor=none;fontSize=14;fontColor=#ffffff;align=center;" vertex="1" parent="1lKvg62nwzbLg4IVKvBi-4">
          <mxGeometry x="480" y="5" width="70" height="50" as="geometry" />
        </mxCell>
        <mxCell id="1lKvg62nwzbLg4IVKvBi-9" value="Visualisation" style="fillColor=none;strokeColor=none;fontSize=14;fontColor=#ffffff;align=center;" vertex="1" parent="1lKvg62nwzbLg4IVKvBi-4">
          <mxGeometry x="560" y="5" width="70" height="50" as="geometry" />
        </mxCell>
        <mxCell id="1lKvg62nwzbLg4IVKvBi-10" value="" style="shape=ext;double=1;rounded=0;whiteSpace=wrap;html=1;fillColor=#CCFFFF;" vertex="1" parent="1">
          <mxGeometry x="2470" y="250" width="1110" height="1000" as="geometry" />
        </mxCell>
        <mxCell id="1lKvg62nwzbLg4IVKvBi-12" value="&lt;span style=&quot;color: rgb(0, 0, 0); font-family: Helvetica; font-size: 30px; font-style: normal; font-variant-ligatures: normal; font-variant-caps: normal; font-weight: 700; letter-spacing: normal; orphans: 2; text-align: center; text-indent: 0px; text-transform: none; widows: 2; word-spacing: 0px; -webkit-text-stroke-width: 0px; background-color: rgb(251, 251, 251); text-decoration-thickness: initial; text-decoration-style: initial; text-decoration-color: initial; float: none; display: inline !important;&quot;&gt;Visualisation Page&lt;/span&gt;" style="text;whiteSpace=wrap;html=1;" vertex="1" parent="1">
          <mxGeometry x="2870" y="30" width="390" height="60" as="geometry" />
        </mxCell>
        <mxCell id="1lKvg62nwzbLg4IVKvBi-47" value="Prediction over time" style="swimlane;whiteSpace=wrap;html=1;" vertex="1" parent="1">
          <mxGeometry x="2655" y="380" width="740" height="320" as="geometry" />
        </mxCell>
        <mxCell id="1lKvg62nwzbLg4IVKvBi-48" value="&lt;font style=&quot;font-size: 36px;&quot;&gt;(First Graph)&lt;/font&gt;" style="text;strokeColor=none;align=center;fillColor=none;html=1;verticalAlign=middle;whiteSpace=wrap;rounded=0;" vertex="1" parent="1lKvg62nwzbLg4IVKvBi-47">
          <mxGeometry x="245" y="90" width="250" height="100" as="geometry" />
        </mxCell>
        <mxCell id="1lKvg62nwzbLg4IVKvBi-49" value="" style="rounded=1;whiteSpace=wrap;html=1;fillColor=#67AB9F;" vertex="1" parent="1">
          <mxGeometry x="2730" y="290" width="540" height="60" as="geometry" />
        </mxCell>
        <mxCell id="1lKvg62nwzbLg4IVKvBi-50" value="&lt;font color=&quot;#ffffff&quot; style=&quot;font-size: 36px;&quot;&gt;&lt;b&gt;Visualisation&lt;/b&gt;&lt;/font&gt;" style="text;strokeColor=none;align=center;fillColor=none;html=1;verticalAlign=middle;whiteSpace=wrap;rounded=0;" vertex="1" parent="1">
          <mxGeometry x="2840" y="305" width="350" height="30" as="geometry" />
        </mxCell>
        <mxCell id="1lKvg62nwzbLg4IVKvBi-51" value="Distribution by class" style="swimlane;whiteSpace=wrap;html=1;" vertex="1" parent="1">
          <mxGeometry x="2645" y="740" width="755" height="320" as="geometry" />
        </mxCell>
        <mxCell id="1lKvg62nwzbLg4IVKvBi-52" value="&lt;font style=&quot;font-size: 36px;&quot;&gt;(Second Graph)&lt;/font&gt;" style="text;strokeColor=none;align=center;fillColor=none;html=1;verticalAlign=middle;whiteSpace=wrap;rounded=0;" vertex="1" parent="1lKvg62nwzbLg4IVKvBi-51">
          <mxGeometry x="215" y="90" width="365" height="100" as="geometry" />
        </mxCell>
      </root>
    </mxGraphModel>
  </diagram>
</mxfile>
